<svg aria-hidden="true" style="position: absolute; width: 0; height: 0; overflow: hidden;" version="1.1" xmlns="http://www.w3.org/2000/svg" xmlns:xlink="http://www.w3.org/1999/xlink">
<defs>
<symbol id="icon-ice-cream" viewBox="0 0 32 32">
<path d="M20.804 10.742c1.448-3.62-1.789-4.217-1.789-4.174 1.022-2.556-1.022-4.26-2.896-4.26s-1.789 0.853-1.789 0.853 1.022-0.213 1.022 0.596c0 0.81-0.938 0.767-1.874 1.704-0.938 0.937-0.49 0.81-0.554 0.81 1.948-0.128 3.088 1.885 5.239 1.149-2.13 1.065-2.641-0.628-4.941-0.713-0.298 0-2.002-0.33-2.002 2.928 2.492 0.288 3.578 2.002 6.943 1.619-3.791 1.405-8.54-4.409-9.2 1.959 0 1.363 1.021 2.048 1.021 2.048s11.799 0 11.757 0c2.342-1.022 1.193-4.732-0.937-4.519zM16.072 31l5.328-15.069h-10.773l5.445 15.069z"></path>
</symbol>
<symbol id="icon-icecream" viewBox="0 0 24 24">
<path d="M6.844 12.984q-1.172-0.094-2.016-0.961t-0.844-2.039q0-1.078 0.727-1.922t1.805-1.031q0.188-2.109 1.758-3.563t3.727-1.453 3.727 1.453 1.758 3.563q1.078 0.188 1.805 1.031t0.727 1.922q0 1.172-0.82 2.039t-1.992 0.961l-5.156 10.031zM8.813 12.422l3.234 6.188 3.188-6.188q-0.047-0.047-0.164-0.141t-0.164-0.141q-1.359 0.844-2.906 0.844t-2.906-0.844q-0.047 0.047-0.094 0.117t-0.094 0.117-0.094 0.047z"></path>
</symbol>

  <symbol fill="none"  viewBox="0 0 20 14" id="burger">
    <path d="M0 1H20" ></path>
    <path d="M0 7H20" ></path>
    <path d="M0 13H20" ></path>
  </symbol>
    <symbol viewBox="0 0 16 16" id="close">
    <path d="M1.25928 1L14.7408 15" ></path>
    <path d="M1 14.7407L15 1.25924" ></path>
  </symbol>

    <symbol fill="none" xmlns="http://www.w3.org/2000/svg" viewBox="0 0 8 10" id="arrow-reght">
    <path d="M1.10693 1L6.3648 5L1.10693 9" stroke="#D41443" stroke-width="2" stroke-linecap="round" stroke-linejoin="round"></path>
  </symbol>
</defs>
</svg>
