<svg aria-hidden="true" style="position: absolute; width: 0; height: 0; overflow: hidden;" version="1.1" xmlns="http://www.w3.org/2000/svg" xmlns:xlink="http://www.w3.org/1999/xlink">
<defs>
<symbol id="icon-ice-cream" viewBox="0 0 32 32">
<path d="M20.804 10.742c1.448-3.62-1.789-4.217-1.789-4.174 1.022-2.556-1.022-4.26-2.896-4.26s-1.789 0.853-1.789 0.853 1.022-0.213 1.022 0.596c0 0.81-0.938 0.767-1.874 1.704-0.938 0.937-0.49 0.81-0.554 0.81 1.948-0.128 3.088 1.885 5.239 1.149-2.13 1.065-2.641-0.628-4.941-0.713-0.298 0-2.002-0.33-2.002 2.928 2.492 0.288 3.578 2.002 6.943 1.619-3.791 1.405-8.54-4.409-9.2 1.959 0 1.363 1.021 2.048 1.021 2.048s11.799 0 11.757 0c2.342-1.022 1.193-4.732-0.937-4.519zM16.072 31l5.328-15.069h-10.773l5.445 15.069z"></path>
</symbol>
<symbol id="icon-icecream" viewBox="0 0 24 24">
<path d="M6.844 12.984q-1.172-0.094-2.016-0.961t-0.844-2.039q0-1.078 0.727-1.922t1.805-1.031q0.188-2.109 1.758-3.563t3.727-1.453 3.727 1.453 1.758 3.563q1.078 0.188 1.805 1.031t0.727 1.922q0 1.172-0.82 2.039t-1.992 0.961l-5.156 10.031zM8.813 12.422l3.234 6.188 3.188-6.188q-0.047-0.047-0.164-0.141t-0.164-0.141q-1.359 0.844-2.906 0.844t-2.906-0.844q-0.047 0.047-0.094 0.117t-0.094 0.117-0.094 0.047z"></path>
</symbol>
<symbol id="icon-home" viewBox="0 0 35 32">
<path fill="#d31342" style="fill: var(--color1, #d31342)" d="M32.64 15.401c0.599-0.65 0.541-1.646-0.129-2.225l-14.772-12.75c-0.671-0.578-1.745-0.566-2.402 0.027l-14.822 13.403c-0.656 0.594-0.689 1.589-0.071 2.222l0.372 0.382c0.617 0.633 1.613 0.708 2.224 0.168l1.108-0.979v14.326c0 0.879 0.722 1.591 1.612 1.591h5.778c0.89 0 1.612-0.712 1.612-1.591v-10.023h7.37v10.023c-0.013 0.878 0.624 1.59 1.515 1.59h6.123c0.89 0 1.613-0.711 1.613-1.59v-14.124c0 0 0.306 0.264 0.683 0.592s1.168 0.065 1.767-0.586l0.42-0.455z"></path>
</symbol>
  <symbol fill="none"  viewBox="0 0 20 14" id="burger">
    <path d="M0 1H20" ></path>
    <path d="M0 7H20" ></path>
    <path d="M0 13H20" ></path>
  </symbol>
    <symbol viewBox="0 0 16 16" id="close">
    <path d="M1.25928 1L14.7408 15" ></path>
    <path d="M1 14.7407L15 1.25924" ></path>
  </symbol>

<symbol  viewBox="0 0 7 10" id="arrow-reght">
    <path d="M1.4026 1L5.68381 5L1.4026 9"  stroke-width="2" stroke-linecap="round" stroke-linejoin="round"></path>
  </symbol>
<symbol id="icon-ice-cream" viewBox="0 0 32 32">
<path d="M23.572 8.269c-0.428-3.756-3.675-6.581-7.572-6.581-3.938 0-7.213 2.847-7.619 6.631-0.016 0.169-0.019 0.281-0.019 0.428v0.791c0 0.309 0.253 0.563 0.563 0.563s0.563-0.253 0.563-0.563v-0.791c0-0.113 0-0.197 0.012-0.316 0.347-3.203 3.141-5.619 6.5-5.619 3.334 0 6.113 2.416 6.459 5.622 0.003 0.031 0.009 0.063 0.019 0.091 0.025 0.091 0.038 0.159 0.038 0.222v9.278c0 0.309 0.253 0.563 0.563 0.563s0.563-0.253 0.563-0.563v-9.278c-0.003-0.153-0.025-0.306-0.069-0.478zM23.075 19.528c-0.309 0-0.563 0.253-0.563 0.563v1.691c0 0.475-0.406 0.863-0.906 0.863h-11.213c-0.5 0-0.906-0.387-0.906-0.863v-8.531c0-0.309-0.253-0.563-0.563-0.563s-0.563 0.253-0.563 0.563v8.531c0 1.097 0.912 1.988 2.031 1.988h3.509v4.863c0 0.941 0.919 1.678 2.094 1.678s2.094-0.738 2.094-1.678v-4.863h3.516c1.122 0 2.031-0.891 2.031-1.988v-1.691c0-0.309-0.253-0.563-0.563-0.563zM16.966 28.634c0 0.262-0.416 0.553-0.969 0.553s-0.969-0.294-0.969-0.553v-4.866h1.938v4.866zM8.925 12.072c0.309 0 0.563-0.253 0.563-0.563v-0.091c0-0.309-0.253-0.563-0.563-0.563s-0.563 0.253-0.563 0.563v0.091c0 0.309 0.253 0.563 0.563 0.563z"></path>
<path d="M13.7 19.494v-10.719c0-0.309-0.253-0.563-0.563-0.563s-0.563 0.253-0.563 0.563v10.716c0 0.309 0.253 0.563 0.563 0.563s0.563-0.25 0.563-0.559zM19.206 19.494v-10.719c0-0.309-0.253-0.563-0.563-0.563s-0.563 0.253-0.563 0.563v10.716c0 0.309 0.253 0.563 0.563 0.563s0.563-0.25 0.563-0.559z"></path>
</symbol>
<symbol id="icon-apostrophe" viewBox="0 0 43 32">
<path fill="#e1e1e1" style="fill: var(--color1, #e1e1e1)" d="M32.014 0c1.929 0 3.75 0.52 5.464 1.561s3.107 2.537 4.179 4.488c1.029 1.951 1.543 4.249 1.543 6.894s-0.643 5.225-1.929 7.74c-0.429 0.911-1.2 2.081-2.314 3.512-1.157 1.431-2.229 2.667-3.214 3.707l-4.050 4.098-2.893-4.813c2.014-1.257 3.793-2.818 5.336-4.683 1.543-1.821 2.314-3.491 2.314-5.008 0-0.78-0.171-1.409-0.514-1.886-1.5 1.084-3.171 1.626-5.014 1.626-1.329 0-2.593-0.412-3.793-1.236-1.243-0.78-2.229-1.821-2.957-3.122-0.771-1.258-1.157-2.558-1.157-3.902 0-1.518 0.45-2.97 1.35-4.358 0.857-1.388 1.993-2.515 3.407-3.382 1.371-0.824 2.786-1.236 4.243-1.236zM8.936 0c1.929 0 3.75 0.52 5.464 1.561s3.107 2.537 4.179 4.488c1.029 1.951 1.543 4.249 1.543 6.894 0 1.864-0.236 3.534-0.707 5.008-0.471 1.518-1.286 3.1-2.443 4.748-1.114 1.561-2.164 2.862-3.15 3.902-0.986 1.084-2.7 2.884-5.143 5.398l-2.893-4.813c2.014-1.257 3.793-2.818 5.336-4.683 1.543-1.821 2.314-3.491 2.314-5.008 0-0.78-0.171-1.409-0.514-1.886-1.5 1.084-3.171 1.626-5.014 1.626-1.329 0-2.593-0.412-3.793-1.236-1.243-0.78-2.229-1.821-2.957-3.122-0.771-1.258-1.157-2.558-1.157-3.902 0-1.518 0.429-2.97 1.286-4.358s1.993-2.515 3.407-3.382c1.371-0.824 2.786-1.236 4.243-1.236z"></path>
</symbol>
<symbol id="icon-milk" viewBox="0 0 32 32">
<path d="M18.8 29.975h-12.128c-0.3 0-0.544-0.244-0.544-0.544v-19.231c0-0.3 0.244-0.544 0.544-0.544h12.128c0.3 0 0.544 0.244 0.544 0.544v19.231c0 0.3-0.244 0.544-0.544 0.544zM7.216 28.887h11.041v-18.144h-11.041v18.144zM21.959 6.172h-12.053c-0.3 0-0.544-0.244-0.544-0.544v-3.078c0-0.3 0.244-0.544 0.544-0.544h12.053c0.3 0 0.544 0.244 0.544 0.544v3.075c0.003 0.303-0.241 0.547-0.544 0.547zM10.453 5.081h10.966v-1.984h-10.966v1.984z"></path>
<path d="M24.863 29.975h-6.063c-0.3 0-0.544-0.244-0.544-0.544v-19.231c0-0.3 0.244-0.544 0.544-0.544h6.066c0.3 0 0.544 0.244 0.544 0.544v19.231c0 0.3-0.244 0.544-0.547 0.544zM19.344 28.887h4.975v-18.144h-4.975v18.144z"></path>
<path d="M18.831 10.744h-12.159c-0.203 0-0.388-0.113-0.481-0.291s-0.081-0.394 0.031-0.563l3.128-4.572c0.103-0.147 0.269-0.237 0.45-0.237h12.159c0.203 0 0.387 0.112 0.481 0.291s0.081 0.394-0.031 0.563l-3.128 4.572c-0.103 0.15-0.269 0.238-0.45 0.238zM7.703 9.656h10.841l2.384-3.484h-10.841l-2.384 3.484z"></path>
<path d="M24.863 10.744h-6.063c-0.203 0-0.387-0.113-0.481-0.294s-0.081-0.397 0.038-0.563l3.191-4.572c0.103-0.15 0.269-0.237 0.459-0.231 0.181 0.003 0.35 0.1 0.447 0.253l2.875 4.572c0.106 0.169 0.113 0.378 0.016 0.553-0.1 0.175-0.281 0.281-0.481 0.281zM19.844 9.656h4.034l-1.913-3.044-2.122 3.044zM18.8 25.184h-12.128c-0.241 0-0.434-0.194-0.434-0.434v-9.25c0-0.241 0.194-0.434 0.434-0.434h12.128c0.241 0 0.434 0.194 0.434 0.434v9.25c0 0.238-0.194 0.434-0.434 0.434zM7.106 24.313h11.256v-8.378h-11.256v8.378z"></path>
<path d="M7.925 18.153h0.825l0.634 1.744c0.081 0.231 0.15 0.478 0.228 0.722h0.025c0.081-0.241 0.147-0.488 0.228-0.722l0.619-1.744h0.825v3.728h-0.681v-1.556c0-0.353 0.056-0.872 0.091-1.225h-0.019l-0.303 0.875-0.575 1.566h-0.428l-0.578-1.566-0.297-0.875h-0.019c0.034 0.353 0.097 0.872 0.097 1.225v1.556h-0.669v-3.728zM12.097 18.203c0-0.241 0.188-0.403 0.444-0.403 0.253 0 0.438 0.163 0.438 0.403 0 0.231-0.188 0.403-0.438 0.403-0.256 0-0.444-0.172-0.444-0.403zM12.169 19.059h0.734v2.822h-0.734v-2.822zM13.7 21.091v-3.231h0.738v3.266c0 0.166 0.081 0.222 0.15 0.222 0.031 0 0.050 0 0.1-0.009l0.091 0.55c-0.084 0.034-0.213 0.066-0.384 0.066-0.512-0.003-0.694-0.341-0.694-0.863zM15.287 17.859h0.722v2.419h0.019l0.978-1.219h0.806l-0.978 1.153 1.069 1.666h-0.8l-0.684-1.169-0.409 0.462v0.706h-0.722v-4.019z"></path>
</symbol>

<symbol id="icon-facebook" viewBox="0 0 32 32">
<path  d="M21.329 5.313h2.921v-5.088c-0.504-0.069-2.237-0.225-4.256-0.225-4.212 0-7.097 2.649-7.097 7.519v4.481h-4.648v5.688h4.648v14.312h5.699v-14.311h4.46l0.708-5.688h-5.169v-3.919c0.001-1.644 0.444-2.769 2.735-2.769z"></path>
</symbol>
<symbol id="icon-telegram" viewBox="0 0 32 32">
<path d="M16 0c-8.838 0-16 7.162-16 16s7.162 16 16 16 16-7.163 16-16-7.163-16-16-16zM23.863 10.969l-2.625 12.369c-0.181 0.881-0.712 1.087-1.45 0.681l-4-2.956-1.919 1.869c-0.225 0.219-0.4 0.4-0.8 0.4-0.519 0-0.431-0.194-0.606-0.688l-1.363-4.475-3.956-1.231c-0.856-0.262-0.862-0.85 0.194-1.269l15.412-5.95c0.7-0.319 1.381 0.169 1.113 1.25z"></path>
</symbol>
<symbol id="icon-github" viewBox="0 0 32 32">
<path d="M16 0.395c-8.836 0-16 7.163-16 16 0 7.069 4.585 13.067 10.942 15.182 0.8 0.148 1.094-0.347 1.094-0.77 0-0.381-0.015-1.642-0.022-2.979-4.452 0.968-5.391-1.888-5.391-1.888-0.728-1.849-1.776-2.341-1.776-2.341-1.452-0.993 0.11-0.973 0.11-0.973 1.606 0.113 2.452 1.649 2.452 1.649 1.427 2.446 3.743 1.739 4.656 1.33 0.143-1.034 0.558-1.74 1.016-2.14-3.554-0.404-7.29-1.777-7.29-7.907 0-1.747 0.625-3.174 1.649-4.295-0.166-0.403-0.714-2.030 0.155-4.234 0 0 1.344-0.43 4.401 1.64 1.276-0.355 2.645-0.532 4.005-0.539 1.359 0.006 2.729 0.184 4.008 0.539 3.054-2.070 4.395-1.64 4.395-1.64 0.871 2.204 0.323 3.831 0.157 4.234 1.026 1.12 1.647 2.548 1.647 4.295 0 6.145-3.743 7.498-7.306 7.895 0.574 0.497 1.085 1.47 1.085 2.963 0 2.141-0.019 3.864-0.019 4.391 0 0.426 0.288 0.925 1.099 0.768 6.354-2.118 10.933-8.113 10.933-15.18 0-8.837-7.164-16-16-16z"></path>
</symbol>

<symbol id="icon-apple" viewBox="0 0 32 32">
<path d="M15.2 11.213h-0.016c-0.344-0.009-0.619-0.297-0.609-0.641 0.034-1.344-0.572-2.472-1.806-3.359-0.959-0.691-1.928-0.963-1.938-0.966-0.334-0.091-0.528-0.434-0.438-0.769s0.434-0.528 0.769-0.438c0.047 0.013 1.197 0.334 2.338 1.156 1.566 1.128 2.369 2.65 2.325 4.406-0.009 0.341-0.287 0.609-0.625 0.609z"></path>
<path d="M11.425 10.281c0.575 0 1.141 0.094 1.684 0.281 0.328 0.131 0.684 0.306 1.056 0.512 0.688 0.384 1.728 0.519 2.409 0.519 0.403 0 0.806-0.063 1.203-0.188 0.322-0.1 0.637-0.222 0.938-0.356l0.772-0.347c0.153-0.069 0.303-0.113 0.444-0.134l0.038-0.006c0.475-0.084 0.95-0.128 1.403-0.128 0.075 0 0.15 0 0.225 0.003 0.478 0.016 0.928 0.1 1.341 0.253 0.375 0.141 0.716 0.366 1.041 0.694 0.337 0.341 0.647 0.822 0.913 1.425 0.488 1.134 0.656 1.875 0.641 2.838-0.016 1.113-0.194 2.231-0.525 3.331-0.341 1.128-0.816 2.25-1.406 3.337-0.416 0.762-0.863 1.397-1.334 2.066-0.203 0.288-0.413 0.581-0.625 0.9-0.466 0.672-0.803 1.016-1.003 1.184-0.291 0.247-0.5 0.337-0.622 0.369-0.15 0.041-0.297 0.059-0.444 0.059-0.056 0-0.116-0.003-0.175-0.009-0.322-0.034-0.675-0.087-1.044-0.159-0.438-0.084-0.916-0.153-1.416-0.203-0.197-0.022-0.431-0.031-0.697-0.031-0.537 0-1.094 0.041-1.522 0.113l-0.019 0.006c-0.878 0.163-1.594 0.259-2.122 0.284-0.044 0.003-0.084 0.003-0.125 0.003-0.306 0-0.563-0.056-0.781-0.175-0.281-0.15-0.591-0.447-0.897-0.859-0.4-0.538-0.906-1.306-1.509-2.294l-0.012-0.022c-0.766-1.253-1.372-2.241-1.841-3.491-0.475-1.262-0.775-2.491-0.891-3.65-0.106-1.066-0.041-1.787 0.256-2.762 0.263-0.859 0.737-1.569 1.453-2.166l0.006-0.006c0.762-0.644 1.544-1.016 2.391-1.134 0.266-0.034 0.534-0.056 0.797-0.056zM11.425 9.031c-0.322 0-0.65 0.025-0.981 0.072-1.075 0.153-2.081 0.628-3.022 1.419-0.9 0.753-1.516 1.672-1.847 2.763s-0.431 1.981-0.303 3.253c0.128 1.272 0.45 2.594 0.966 3.962s1.169 2.434 1.959 3.725c0.625 1.022 1.15 1.819 1.572 2.387s0.859 0.975 1.309 1.216c0.403 0.216 0.859 0.322 1.372 0.322 0.063 0 0.125 0 0.188-0.003 0.588-0.028 1.353-0.131 2.291-0.303 0.381-0.066 0.881-0.097 1.313-0.097 0.216 0 0.413 0.009 0.569 0.025 0.469 0.047 0.906 0.109 1.309 0.188s0.788 0.134 1.144 0.175c0.103 0.012 0.206 0.016 0.306 0.016 0.256 0 0.512-0.034 0.769-0.103 0.359-0.097 0.725-0.303 1.103-0.622s0.788-0.797 1.228-1.431c0.716-1.059 1.394-1.906 2.028-3.075s1.134-2.356 1.503-3.572c0.369-1.216 0.559-2.441 0.578-3.675s-0.231-2.159-0.744-3.353c-0.331-0.753-0.722-1.356-1.172-1.809s-0.947-0.781-1.491-0.984-1.122-0.313-1.738-0.331c-0.087-0.003-0.175-0.003-0.266-0.003-0.531 0-1.072 0.050-1.625 0.15-0.256 0.037-0.516 0.116-0.772 0.231l-0.772 0.347c-0.256 0.116-0.525 0.216-0.8 0.303s-0.553 0.131-0.828 0.131c-0.553 0-1.366-0.122-1.8-0.363-0.431-0.241-0.841-0.438-1.228-0.594-0.684-0.244-1.391-0.366-2.119-0.366z"></path>
<path d="M16.209 11.384c-0.344 0-0.694-0.028-1.047-0.084-0.266-0.044-0.478-0.253-0.519-0.519-0.309-1.947 0.247-3.794 1.522-5.072 1.278-1.278 3.125-1.831 5.072-1.522 0.266 0.044 0.478 0.253 0.519 0.519 0.309 1.947-0.247 3.794-1.522 5.072-1.044 1.044-2.472 1.606-4.025 1.606zM15.822 10.119c1.369 0.1 2.638-0.334 3.528-1.228 0.891-0.891 1.325-2.156 1.228-3.528-1.369-0.1-2.637 0.334-3.528 1.228s-1.325 2.159-1.228 3.528z"></path>
</symbol>
</defs>
</svg>
